<svg xmlns="http://www.w3.org/2000/svg" viewBox="0 0 1000 1000">
    <g><path d="M983.8,207.8l-57.5,55.4L807.2,148.4l57.5-55.4c8.2-7.9,20.5-7.9,28.8,0l90.4,87.1C992.1,188,992.1,199.9,983.8,207.8z M515.5,662.7L396.4,547.8l374.8-361.4l119.1,114.9L515.5,662.7z M293.5,750.6l65.7-166.4l115,110.9l-168.5,67.4C293.5,766.4,289.4,762.4,293.5,750.6z M133.3,279.1c-20.6,0-41.1,19.8-41.1,39.6v475.4c0,19.8,20.6,39.6,41.1,39.6h493.1c20.6,0,41.1-19.8,41.1-39.6V623.8l82.2-79.2v209.9c0,87.2-74,158.5-164.3,158.5H174.4C84,913,10,841.7,10,754.5V358.4c0-87.1,74-158.5,164.4-158.5h406.8c20.5,0,32.9,4,49.3,7.9l-74,71.3H133.3z" fill="silver"/></g>
</svg>
